<svg xmlns="http://www.w3.org/2000/svg" xmlns:xlink="http://www.w3.org/1999/xlink" viewBox="0,0,256,256" width="26px" height="26px" fill-rule="nonzero"><g fill="#ffffff" fill-rule="nonzero" stroke="none" stroke-width="1" stroke-linecap="butt" stroke-linejoin="miter" stroke-miterlimit="10" stroke-dasharray="" stroke-dashoffset="0" font-family="none" font-weight="none" font-size="none" text-anchor="none" style="mix-blend-mode: normal"><g transform="scale(9.84615,9.84615)"><path d="M20.26563,4.20703c-0.24219,-0.23828 -0.49219,-0.48437 -0.73828,-0.73047c-0.25,-0.24609 -0.49219,-0.49609 -0.73437,-0.74219c-1.71094,-1.74609 -2.73047,-2.73437 -3.79297,-2.73437h-8c-2.20312,0 -4,1.79688 -4,4v18c0,2.20313 1.79688,4 4,4h12c2.20313,0 4,-1.79687 4,-4v-14c0,-1.0625 -0.98828,-2.08203 -2.73437,-3.79297zM21,22c0,1.10547 -0.89453,2 -2,2h-12c-1.10547,0 -2,-0.89453 -2,-2v-18c0,-1.10547 0.89453,-2 2,-2l7.28906,-0.00391c0.72266,0.18359 0.71094,1.07031 0.71094,1.95703v3.04688c0,0.55078 0.44922,1 1,1h3c0.99609,0 2,0.00391 2,1z"></path></g></g></svg>
